<svg width="30" height="32" viewBox="0 0 30 32" fill="none" xmlns="http://www.w3.org/2000/svg">
<path d="M11.25 2.37447H1.875L1.875 29.4237H11.25V2.37447ZM28.125 2.37447H18.75V12.0349H28.125V2.37447ZM28.125 19.7633V29.4237H18.75V19.7633H28.125ZM0 2.37447C0 1.30741 0.839466 0.442383 1.875 0.442383H11.25C12.2855 0.442383 13.125 1.30741 13.125 2.37447V29.4237C13.125 30.4908 12.2855 31.3558 11.25 31.3558H1.875C0.839466 31.3558 0 30.4908 0 29.4237V2.37447ZM16.875 2.37447C16.875 1.30741 17.7145 0.442383 18.75 0.442383H28.125C29.1605 0.442383 30 1.30741 30 2.37447V12.0349C30 13.102 29.1605 13.967 28.125 13.967H18.75C17.7145 13.967 16.875 13.102 16.875 12.0349V2.37447ZM18.75 17.8312C17.7145 17.8312 16.875 18.6962 16.875 19.7633V29.4237C16.875 30.4908 17.7145 31.3558 18.75 31.3558H28.125C29.1605 31.3558 30 30.4908 30 29.4237V19.7633C30 18.6962 29.1605 17.8312 28.125 17.8312H18.75Z" fill="#0082BA"/>
</svg>
