<svg width="30" height="26" viewBox="0 0 30 26" fill="none" xmlns="http://www.w3.org/2000/svg">
<path d="M1.875 4.07682C3.53434 3.36239 5.91356 2.59273 8.2269 2.35229C10.7212 2.09304 12.837 2.47418 14.0625 3.80465V22.6345C12.3096 21.6104 10.0887 21.4699 8.03873 21.6829C5.82549 21.913 3.5957 22.5738 1.875 23.2498V4.07682ZM15.9375 3.80465C17.163 2.47418 19.2788 2.09304 21.7731 2.35229C24.0864 2.59273 26.4657 3.36239 28.125 4.07682V23.2498C26.4043 22.5738 24.1745 21.913 21.9613 21.6829C19.9113 21.4699 17.6904 21.6104 15.9375 22.6345V3.80465ZM15 2.05873C13.1533 0.423035 10.4753 0.17671 8.03873 0.429958C5.19978 0.725025 2.3336 1.7289 0.54956 2.56451C0.214878 2.72127 0 3.06514 0 3.44397V24.6969C0 25.0254 0.161955 25.3313 0.429951 25.5092C0.697947 25.687 1.03526 25.7123 1.32544 25.5764C2.9789 24.8019 5.64397 23.8737 8.2269 23.6053C10.8669 23.3309 13.0828 23.7738 14.2679 25.3004C14.4458 25.5296 14.7152 25.663 15 25.663C15.2848 25.663 15.5542 25.5296 15.7321 25.3004C16.9172 23.7738 19.1331 23.3309 21.7731 23.6053C24.356 23.8737 27.0211 24.8019 28.6746 25.5764C28.9647 25.7123 29.3021 25.687 29.57 25.5092C29.838 25.3313 30 25.0254 30 24.6969V3.44397C30 3.06514 29.7851 2.72127 29.4504 2.56451C27.6664 1.7289 24.8002 0.725025 21.9613 0.429958C19.5247 0.17671 16.8467 0.423035 15 2.05873Z" fill="#00D186"/>
</svg>
