<svg width="30" height="29" viewBox="0 0 30 29" fill="none" xmlns="http://www.w3.org/2000/svg">
<path d="M15.4412 0.177123C15.1654 0.00606311 14.8346 0.00606311 14.5588 0.177123L0.496324 8.90119C0.190827 9.09071 0 9.46066 0 9.8634C0 10.2661 0.190827 10.6361 0.496324 10.8256L5.97656 14.2254L0.496324 17.6252C0.190826 17.8148 0 18.1847 0 18.5875C0 18.9902 0.190826 19.3602 0.496324 19.5497L14.5588 28.2737C14.8346 28.4448 15.1654 28.4448 15.4412 28.2737L29.5037 19.5497C29.8092 19.3602 30 18.9902 30 18.5875C30 18.1847 29.8092 17.8148 29.5037 17.6252L24.0234 14.2254L29.5037 10.8256C29.8092 10.6361 30 10.2661 30 9.8634C30 9.46066 29.8092 9.09071 29.5037 8.90119L15.4412 0.177123ZM22.0312 15.4613L27.0703 18.5875L15 26.0756L2.92969 18.5875L7.96875 15.4613L14.5588 19.5497C14.8346 19.7207 15.1654 19.7207 15.4412 19.5497L22.0312 15.4613ZM15 17.3516L2.92969 9.8634L15 2.37525L27.0703 9.8634L15 17.3516Z" fill="#FF6767"/>
</svg>
