<svg width="30" height="24" viewBox="0 0 30 24" fill="none" xmlns="http://www.w3.org/2000/svg">
<path d="M28.125 23.5005C28.125 23.5005 30 23.5005 30 21.5684C30 19.6363 28.125 13.84 20.625 13.84C13.125 13.84 11.25 19.6363 11.25 21.5684C11.25 23.5005 13.125 23.5005 13.125 23.5005H28.125ZM13.1669 21.5684C13.1604 21.5676 13.1513 21.5664 13.1403 21.5645C13.1351 21.5636 13.13 21.5627 13.125 21.5617C13.1277 21.0515 13.4379 19.5724 14.5486 18.2371C15.5875 16.9881 17.405 15.7721 20.625 15.7721C23.845 15.7721 25.6625 16.9881 26.7014 18.2371C27.8121 19.5724 28.1223 21.0515 28.125 21.5617C28.12 21.5627 28.1149 21.5636 28.1097 21.5645C28.0987 21.5664 28.0896 21.5676 28.0831 21.5684H13.1669Z" fill="#C066DF"/>
<path d="M20.625 9.97587C22.6961 9.97587 24.375 8.24582 24.375 6.11169C24.375 3.97757 22.6961 2.24752 20.625 2.24752C18.5539 2.24752 16.875 3.97757 16.875 6.11169C16.875 8.24582 18.5539 9.97587 20.625 9.97587ZM26.25 6.11169C26.25 9.31288 23.7316 11.908 20.625 11.908C17.5184 11.908 15 9.31288 15 6.11169C15 2.91051 17.5184 0.31543 20.625 0.31543C23.7316 0.31543 26.25 2.91051 26.25 6.11169Z" fill="#C066DF"/>
<path d="M13.0049 14.381C12.3152 14.1537 11.5491 13.9884 10.6993 13.9039C10.2787 13.8621 9.83753 13.84 9.375 13.84C1.875 13.84 0 19.6363 0 21.5684C0 22.8565 0.625 23.5005 1.875 23.5005H9.78068C9.51668 22.9516 9.375 22.3009 9.375 21.5684C9.375 19.6164 10.0823 17.6231 11.4184 15.958C11.8749 15.3891 12.4047 14.8585 13.0049 14.381ZM9.22508 15.773C8.10479 17.5373 7.5 19.5488 7.5 21.5684H1.875C1.875 21.0646 2.18296 19.5783 3.29861 18.2371C4.32128 17.0076 6.09842 15.8101 9.22508 15.773Z" fill="#C066DF"/>
<path d="M2.8125 7.07774C2.8125 3.87655 5.3309 1.28147 8.4375 1.28147C11.5441 1.28147 14.0625 3.87655 14.0625 7.07774C14.0625 10.2789 11.5441 12.874 8.4375 12.874C5.3309 12.874 2.8125 10.2789 2.8125 7.07774ZM8.4375 3.21356C6.36643 3.21356 4.6875 4.94361 4.6875 7.07774C4.6875 9.21186 6.36643 10.9419 8.4375 10.9419C10.5086 10.9419 12.1875 9.21186 12.1875 7.07774C12.1875 4.94361 10.5086 3.21356 8.4375 3.21356Z" fill="#C066DF"/>
</svg>
