<svg width="25" height="32" viewBox="0 0 25 32" fill="none" xmlns="http://www.w3.org/2000/svg">
<path d="M0 1.56158C0 0.957486 0.454251 0.467773 1.0146 0.467773H23.3357C23.8961 0.467773 24.3503 0.957486 24.3503 1.56158C24.3503 2.16567 23.8961 2.65538 23.3357 2.65538H21.3065V4.84299C21.3065 8.75904 19.1855 12.1389 16.1188 13.7241C15.5305 14.0282 15.219 14.5491 15.219 15.0136V16.5485C15.219 17.013 15.5305 17.534 16.1188 17.838C19.1855 19.4233 21.3065 22.8031 21.3065 26.7191V28.9067L23.3357 28.9067C23.8961 28.9067 24.3503 29.3964 24.3503 30.0005C24.3503 30.6046 23.8961 31.0943 23.3357 31.0943L1.0146 31.0943C0.454251 31.0943 0 30.6046 0 30.0005C0 29.3965 0.454251 28.9067 1.0146 28.9067H3.04379V26.7191C3.04379 22.8031 5.16487 19.4233 8.23153 17.838C8.81979 17.534 9.13137 17.013 9.13137 16.5485V15.0136C9.13137 14.5491 8.81979 14.0282 8.23153 13.7241C5.16487 12.1389 3.04379 8.75904 3.04379 4.84299V2.65538H1.0146C0.454251 2.65538 0 2.16567 0 1.56158ZM5.07298 2.65538V4.84299C5.07298 7.88589 6.71945 10.5164 9.10886 11.7515C10.1903 12.3105 11.1606 13.4818 11.1606 15.0136V16.5485C11.1606 18.0803 10.1903 19.2516 9.10886 19.8106C6.71945 21.0457 5.07298 23.6762 5.07298 26.7191V28.9067H19.2773V26.7191C19.2773 23.6762 17.6309 21.0457 15.2415 19.8106C14.16 19.2516 13.1898 18.0803 13.1898 16.5485V15.0136C13.1898 13.4818 14.16 12.3105 15.2415 11.7515C17.6309 10.5164 19.2773 7.8859 19.2773 4.84299V2.65538H5.07298Z" fill="#4C7EFF"/>
</svg>
