<svg width="26" height="31" viewBox="0 0 26 31" fill="none" xmlns="http://www.w3.org/2000/svg">
<path d="M2.78571 0.235352C1.24721 0.235352 0 1.68924 0 3.4827V27.2966C0 29.0901 1.24721 30.5439 2.78571 30.5439H14.0879C14.8267 30.5439 15.5353 30.2018 16.0577 29.5928L25.1841 18.954C25.7065 18.345 26 17.5191 26 16.6578V3.4827C26 1.68924 24.7528 0.235352 23.2143 0.235352H2.78571ZM1.85714 3.4827C1.85714 2.88488 2.27288 2.40025 2.78571 2.40025H23.2143C23.7271 2.40025 24.1429 2.88488 24.1429 3.4827V15.3896H15.7857C14.2472 15.3896 13 16.8435 13 18.637V28.379H2.78571C2.27288 28.379 1.85714 27.8944 1.85714 27.2966V3.4827ZM14.8571 27.9307V18.637C14.8571 18.0392 15.2729 17.5546 15.7857 17.5546H23.7582L14.8571 27.9307Z" fill="#FF6F19"/>
</svg>
