<svg width="20" height="27" viewBox="0 0 20 27" fill="none" xmlns="http://www.w3.org/2000/svg">
<path fill-rule="evenodd" clip-rule="evenodd" d="M16.6667 1.66667H3.33333C2.89131 1.66667 2.46738 1.84226 2.15482 2.15482C1.84226 2.46738 1.66667 2.89131 1.66667 3.33333V23.3333C1.66667 23.7754 1.84226 24.1993 2.15482 24.5118C2.46738 24.8244 2.89131 25 3.33333 25H16.6667C17.1087 25 17.5326 24.8244 17.8452 24.5118C18.1577 24.1993 18.3333 23.7754 18.3333 23.3333V3.33333C18.3333 2.89131 18.1577 2.46738 17.8452 2.15482C17.5326 1.84226 17.1087 1.66667 16.6667 1.66667ZM3.33333 0C2.44928 0 1.60143 0.35119 0.976311 0.976311C0.351189 1.60143 0 2.44928 0 3.33333V23.3333C0 24.2174 0.351189 25.0652 0.976311 25.6904C1.60143 26.3155 2.44928 26.6667 3.33333 26.6667H16.6667C17.5507 26.6667 18.3986 26.3155 19.0237 25.6904C19.6488 25.0652 20 24.2174 20 23.3333V3.33333C20 2.44928 19.6488 1.60143 19.0237 0.976311C18.3986 0.35119 17.5507 0 16.6667 0L3.33333 0Z" fill="#C066DF"/>
<path d="M3.3335 4.16666C3.3335 3.94565 3.42129 3.73369 3.57757 3.57741C3.73385 3.42113 3.94582 3.33333 4.16683 3.33333H15.8335C16.0545 3.33333 16.2665 3.42113 16.4228 3.57741C16.579 3.73369 16.6668 3.94565 16.6668 4.16666V7.49999C16.6668 7.72101 16.579 7.93297 16.4228 8.08925C16.2665 8.24553 16.0545 8.33333 15.8335 8.33333H4.16683C3.94582 8.33333 3.73385 8.24553 3.57757 8.08925C3.42129 7.93297 3.3335 7.72101 3.3335 7.49999V4.16666ZM3.3335 10.8333C3.3335 10.6123 3.42129 10.4004 3.57757 10.2441C3.73385 10.0878 3.94582 9.99999 4.16683 9.99999H5.8335C6.05451 9.99999 6.26647 10.0878 6.42275 10.2441C6.57903 10.4004 6.66683 10.6123 6.66683 10.8333V12.5C6.66683 12.721 6.57903 12.933 6.42275 13.0893C6.26647 13.2455 6.05451 13.3333 5.8335 13.3333H4.16683C3.94582 13.3333 3.73385 13.2455 3.57757 13.0893C3.42129 12.933 3.3335 12.721 3.3335 12.5V10.8333ZM3.3335 15.8333C3.3335 15.6123 3.42129 15.4004 3.57757 15.2441C3.73385 15.0878 3.94582 15 4.16683 15H5.8335C6.05451 15 6.26647 15.0878 6.42275 15.2441C6.57903 15.4004 6.66683 15.6123 6.66683 15.8333V17.5C6.66683 17.721 6.57903 17.933 6.42275 18.0893C6.26647 18.2455 6.05451 18.3333 5.8335 18.3333H4.16683C3.94582 18.3333 3.73385 18.2455 3.57757 18.0893C3.42129 17.933 3.3335 17.721 3.3335 17.5V15.8333ZM3.3335 20.8333C3.3335 20.6123 3.42129 20.4004 3.57757 20.2441C3.73385 20.0878 3.94582 20 4.16683 20H5.8335C6.05451 20 6.26647 20.0878 6.42275 20.2441C6.57903 20.4004 6.66683 20.6123 6.66683 20.8333V22.5C6.66683 22.721 6.57903 22.933 6.42275 23.0893C6.26647 23.2455 6.05451 23.3333 5.8335 23.3333H4.16683C3.94582 23.3333 3.73385 23.2455 3.57757 23.0893C3.42129 22.933 3.3335 22.721 3.3335 22.5V20.8333ZM8.3335 10.8333C8.3335 10.6123 8.42129 10.4004 8.57757 10.2441C8.73385 10.0878 8.94582 9.99999 9.16683 9.99999H10.8335C11.0545 9.99999 11.2665 10.0878 11.4228 10.2441C11.579 10.4004 11.6668 10.6123 11.6668 10.8333V12.5C11.6668 12.721 11.579 12.933 11.4228 13.0893C11.2665 13.2455 11.0545 13.3333 10.8335 13.3333H9.16683C8.94582 13.3333 8.73385 13.2455 8.57757 13.0893C8.42129 12.933 8.3335 12.721 8.3335 12.5V10.8333ZM8.3335 15.8333C8.3335 15.6123 8.42129 15.4004 8.57757 15.2441C8.73385 15.0878 8.94582 15 9.16683 15H10.8335C11.0545 15 11.2665 15.0878 11.4228 15.2441C11.579 15.4004 11.6668 15.6123 11.6668 15.8333V17.5C11.6668 17.721 11.579 17.933 11.4228 18.0893C11.2665 18.2455 11.0545 18.3333 10.8335 18.3333H9.16683C8.94582 18.3333 8.73385 18.2455 8.57757 18.0893C8.42129 17.933 8.3335 17.721 8.3335 17.5V15.8333ZM8.3335 20.8333C8.3335 20.6123 8.42129 20.4004 8.57757 20.2441C8.73385 20.0878 8.94582 20 9.16683 20H10.8335C11.0545 20 11.2665 20.0878 11.4228 20.2441C11.579 20.4004 11.6668 20.6123 11.6668 20.8333V22.5C11.6668 22.721 11.579 22.933 11.4228 23.0893C11.2665 23.2455 11.0545 23.3333 10.8335 23.3333H9.16683C8.94582 23.3333 8.73385 23.2455 8.57757 23.0893C8.42129 22.933 8.3335 22.721 8.3335 22.5V20.8333ZM13.3335 10.8333C13.3335 10.6123 13.4213 10.4004 13.5776 10.2441C13.7339 10.0878 13.9458 9.99999 14.1668 9.99999H15.8335C16.0545 9.99999 16.2665 10.0878 16.4228 10.2441C16.579 10.4004 16.6668 10.6123 16.6668 10.8333V12.5C16.6668 12.721 16.579 12.933 16.4228 13.0893C16.2665 13.2455 16.0545 13.3333 15.8335 13.3333H14.1668C13.9458 13.3333 13.7339 13.2455 13.5776 13.0893C13.4213 12.933 13.3335 12.721 13.3335 12.5V10.8333ZM13.3335 15.8333C13.3335 15.6123 13.4213 15.4004 13.5776 15.2441C13.7339 15.0878 13.9458 15 14.1668 15H15.8335C16.0545 15 16.2665 15.0878 16.4228 15.2441C16.579 15.4004 16.6668 15.6123 16.6668 15.8333V22.5C16.6668 22.721 16.579 22.933 16.4228 23.0893C16.2665 23.2455 16.0545 23.3333 15.8335 23.3333H14.1668C13.9458 23.3333 13.7339 23.2455 13.5776 23.0893C13.4213 22.933 13.3335 22.721 13.3335 22.5V15.8333Z" fill="#C066DF"/>
</svg>
