<svg width="16" height="10" viewBox="0 0 16 10" fill="none" xmlns="http://www.w3.org/2000/svg">
<path d="M7.05876 8.925L1.06376 2.0725C0.356264 1.26625 0.931264 4.59632e-07 2.00501 4.59632e-07H13.995C14.2353 -0.000205574 14.4706 0.0688598 14.6727 0.198926C14.8747 0.328993 15.035 0.514546 15.1343 0.733366C15.2336 0.952187 15.2678 1.195 15.2327 1.43272C15.1975 1.67045 15.0946 1.89301 14.9363 2.07375L8.94126 8.92375C8.82394 9.05801 8.67924 9.16562 8.5169 9.23935C8.35456 9.31308 8.17832 9.35122 8.00001 9.35122C7.82171 9.35122 7.64547 9.31308 7.48313 9.23935C7.32078 9.16562 7.17609 9.05801 7.05876 8.92375V8.925Z" fill="white"/>
</svg>
