<svg width="16" height="28" viewBox="0 0 16 28" fill="none" xmlns="http://www.w3.org/2000/svg">
<path d="M11.4386 12.7641L5.53238 11.0359C4.84879 10.8391 4.37301 10.1992 4.37301 9.48828C4.37301 8.59688 5.09488 7.875 5.98629 7.875H9.61207C10.2793 7.875 10.9355 8.07734 11.4824 8.44922C11.816 8.67344 12.2644 8.61875 12.5488 8.33984L14.4519 6.48047C14.8402 6.10313 14.7855 5.47422 14.3535 5.14062C13.0136 4.09062 11.3402 3.50547 9.62301 3.5V0.875C9.62301 0.39375 9.22926 0 8.74801 0H6.99801C6.51676 0 6.12301 0.39375 6.12301 0.875V3.5H5.98629C2.5027 3.5 -0.297305 6.49141 0.0253514 10.0406C0.255039 12.5617 2.18004 14.6125 4.60816 15.3234L10.2136 16.9641C10.8972 17.1664 11.373 17.8008 11.373 18.5117C11.373 19.4031 10.6511 20.125 9.75973 20.125H6.13394C5.46676 20.125 4.81051 19.9227 4.26363 19.5508C3.93004 19.3266 3.4816 19.3813 3.19723 19.6602L1.2941 21.5195C0.90582 21.8969 0.960508 22.5258 1.39254 22.8594C2.73238 23.9094 4.40582 24.4945 6.12301 24.5V27.125C6.12301 27.6063 6.51676 28 6.99801 28H8.74801C9.22926 28 9.62301 27.6063 9.62301 27.125V24.4891C12.1714 24.4398 14.5613 22.925 15.4035 20.5133C16.5793 17.1445 14.605 13.6883 11.4386 12.7641Z" fill="#FF6767"/>
</svg>
