<svg width="23" height="21" viewBox="0 0 23 21" fill="none" xmlns="http://www.w3.org/2000/svg">
<path d="M0 3.5C0 1.567 1.28718 0 2.875 0H20.125C21.7128 0 23 1.567 23 3.5V17.5C23 19.433 21.7128 21 20.125 21H2.875C1.28718 21 0 19.433 0 17.5V3.5ZM2.875 1.75C2.08109 1.75 1.4375 2.5335 1.4375 3.5V3.87958L11.5 11.2296L21.5625 3.87958V3.5C21.5625 2.5335 20.9189 1.75 20.125 1.75H2.875ZM21.5625 5.92042L14.7946 10.8639L21.5625 15.9341V5.92042ZM21.514 17.9526L13.4059 11.8783L11.5 13.2704L9.59412 11.8783L1.48604 17.9526C1.64988 18.6997 2.20965 19.25 2.875 19.25H20.125C20.7903 19.25 21.3501 18.6997 21.514 17.9526ZM1.4375 15.9341L8.20536 10.8639L1.4375 5.92042V15.9341Z" fill="#FF6F19"/>
</svg>
