<svg width="25" height="23" viewBox="0 0 25 23" fill="none" xmlns="http://www.w3.org/2000/svg">
<path d="M1.64269 0.00990888C1.92599 -0.0295664 2.21412 0.0503013 2.41706 0.224561L3.57143 1.21578L4.7258 0.224561C5.07448 -0.0748412 5.63981 -0.0748412 5.98849 0.224561L7.14286 1.21578L8.29723 0.224561C8.64591 -0.0748412 9.21123 -0.0748412 9.55992 0.224561L10.7143 1.21578L11.8687 0.224561C12.2173 -0.0748412 12.7827 -0.0748412 13.1313 0.224561L14.2857 1.21578L15.4401 0.224561C15.7888 -0.0748412 16.3541 -0.0748412 16.7028 0.224561L17.8571 1.21578L19.0115 0.224561C19.3602 -0.0748412 19.9255 -0.0748412 20.2742 0.224561L21.4286 1.21578L22.5829 0.224561C22.7859 0.0503013 23.074 -0.0295664 23.3573 0.00990888C23.6406 0.0493842 23.8845 0.203389 24.0129 0.423812L24.9057 1.95714C24.9677 2.0636 25 2.18099 25 2.30001V20.7C25 20.819 24.9677 20.9364 24.9057 21.0429L24.0129 22.5762C23.8845 22.7966 23.6406 22.9506 23.3573 22.9901C23.074 23.0296 22.7859 22.9497 22.5829 22.7754L21.4286 21.7842L20.2742 22.7754C19.9255 23.0748 19.3602 23.0748 19.0115 22.7754L17.8571 21.7842L16.7028 22.7754C16.3541 23.0748 15.7888 23.0748 15.4401 22.7754L14.2857 21.7842L13.1313 22.7754C12.7827 23.0748 12.2173 23.0748 11.8687 22.7754L10.7143 21.7842L9.55992 22.7754C9.21123 23.0748 8.64591 23.0748 8.29723 22.7754L7.14286 21.7842L5.98849 22.7754C5.63981 23.0748 5.07448 23.0748 4.7258 22.7754L3.57143 21.7842L2.41706 22.7754C2.21412 22.9497 1.92599 23.0296 1.64269 22.9901C1.3594 22.9506 1.11547 22.7966 0.987119 22.5762L0.0942614 21.0429C0.0322724 20.9364 0 20.819 0 20.7V2.30001C0 2.18099 0.0322724 2.0636 0.0942614 1.95714L0.987119 0.423812C1.11547 0.203389 1.3594 0.0493842 1.64269 0.00990888ZM2.03031 2.06093L1.78571 2.48099V20.519L2.03031 20.9391L2.94008 20.1579C3.28877 19.8585 3.85409 19.8585 4.20277 20.1579L5.35714 21.1491L6.51151 20.1579C6.86019 19.8585 7.42552 19.8585 7.7742 20.1579L8.92857 21.1491L10.0829 20.1579C10.4316 19.8585 10.9969 19.8585 11.3456 20.1579L12.5 21.1491L13.6544 20.1579C14.0031 19.8585 14.5684 19.8585 14.9171 20.1579L16.0714 21.1491L17.2258 20.1579C17.5745 19.8585 18.1398 19.8585 18.4885 20.1579L19.6429 21.1491L20.7972 20.1579C21.1459 19.8585 21.7112 19.8585 22.0599 20.1579L22.9697 20.9391L23.2143 20.519V2.48099L22.9697 2.06093L22.0599 2.84212C21.7112 3.14152 21.1459 3.14152 20.7972 2.84212L19.6429 1.85091L18.4885 2.84212C18.1398 3.14152 17.5745 3.14152 17.2258 2.84212L16.0714 1.85091L14.9171 2.84212C14.5684 3.14152 14.0031 3.14152 13.6544 2.84212L12.5 1.8509L11.3456 2.84212C10.9969 3.14152 10.4316 3.14152 10.0829 2.84212L8.92857 1.8509L7.7742 2.84212C7.42552 3.14152 6.86019 3.14152 6.51151 2.84212L5.35714 1.8509L4.20277 2.84212C3.85409 3.14152 3.28877 3.14152 2.94008 2.84212L2.03031 2.06093Z" fill="#00D186"/>
<path d="M3.57143 6.13334C3.57143 5.70992 3.97117 5.36667 4.46429 5.36667H15.1786C15.6717 5.36667 16.0714 5.70992 16.0714 6.13334C16.0714 6.55676 15.6717 6.9 15.1786 6.9H4.46429C3.97117 6.9 3.57143 6.55676 3.57143 6.13334ZM3.57143 9.2C3.57143 8.77658 3.97117 8.43334 4.46429 8.43334H15.1786C15.6717 8.43334 16.0714 8.77658 16.0714 9.2C16.0714 9.62342 15.6717 9.96667 15.1786 9.96667H4.46429C3.97117 9.96667 3.57143 9.62342 3.57143 9.2ZM3.57143 12.2667C3.57143 11.8432 3.97117 11.5 4.46429 11.5H15.1786C15.6717 11.5 16.0714 11.8432 16.0714 12.2667C16.0714 12.6901 15.6717 13.0333 15.1786 13.0333H4.46429C3.97117 13.0333 3.57143 12.6901 3.57143 12.2667ZM3.57143 15.3333C3.57143 14.9099 3.97117 14.5667 4.46429 14.5667H15.1786C15.6717 14.5667 16.0714 14.9099 16.0714 15.3333C16.0714 15.7567 15.6717 16.1 15.1786 16.1H4.46429C3.97117 16.1 3.57143 15.7567 3.57143 15.3333Z" fill="#00D186"/>
<path d="M17.8571 6.13334C17.8571 5.70992 18.2569 5.36667 18.75 5.36667H20.5357C21.0288 5.36667 21.4286 5.70992 21.4286 6.13334C21.4286 6.55676 21.0288 6.9 20.5357 6.9H18.75C18.2569 6.9 17.8571 6.55676 17.8571 6.13334ZM17.8571 9.2C17.8571 8.77658 18.2569 8.43334 18.75 8.43334H20.5357C21.0288 8.43334 21.4286 8.77658 21.4286 9.2C21.4286 9.62342 21.0288 9.96667 20.5357 9.96667H18.75C18.2569 9.96667 17.8571 9.62342 17.8571 9.2ZM17.8571 12.2667C17.8571 11.8432 18.2569 11.5 18.75 11.5H20.5357C21.0288 11.5 21.4286 11.8432 21.4286 12.2667C21.4286 12.6901 21.0288 13.0333 20.5357 13.0333H18.75C18.2569 13.0333 17.8571 12.6901 17.8571 12.2667ZM17.8571 15.3333C17.8571 14.9099 18.2569 14.5667 18.75 14.5667H20.5357C21.0288 14.5667 21.4286 14.9099 21.4286 15.3333C21.4286 15.7567 21.0288 16.1 20.5357 16.1H18.75C18.2569 16.1 17.8571 15.7567 17.8571 15.3333Z" fill="#00D186"/>
</svg>
